<mxfile host="app.diagrams.net" modified="2023-04-09T03:40:59.739Z" agent="Mozilla/5.0 (Windows NT 10.0; Win64; x64; rv:109.0) Gecko/20100101 Firefox/111.0" etag="I7YsuB5pHWvY5jYvf05j" version="21.1.1" type="github">
  <diagram id="C5RBs43oDa-KdzZeNtuy" name="Page-1">
    <mxGraphModel dx="1434" dy="794" grid="1" gridSize="10" guides="1" tooltips="1" connect="1" arrows="1" fold="1" page="1" pageScale="1" pageWidth="827" pageHeight="1169" math="0" shadow="0">
      <root>
        <mxCell id="WIyWlLk6GJQsqaUBKTNV-0" />
        <mxCell id="WIyWlLk6GJQsqaUBKTNV-1" parent="WIyWlLk6GJQsqaUBKTNV-0" />
        <mxCell id="UfIM0l1DkIzNysHC1ieH-0" value="&lt;div style=&quot;font-size: 14px;&quot;&gt;Get user&#39;s roles&lt;/div&gt;" style="rounded=1;whiteSpace=wrap;html=1;" vertex="1" parent="WIyWlLk6GJQsqaUBKTNV-1">
          <mxGeometry x="150" y="100" width="120" height="70" as="geometry" />
        </mxCell>
        <mxCell id="UfIM0l1DkIzNysHC1ieH-1" value="&lt;font style=&quot;font-size: 14px;&quot;&gt;Does the user have a role that indicates a badge?&lt;/font&gt;" style="rhombus;whiteSpace=wrap;html=1;" vertex="1" parent="WIyWlLk6GJQsqaUBKTNV-1">
          <mxGeometry x="120" y="230" width="180" height="200" as="geometry" />
        </mxCell>
        <mxCell id="UfIM0l1DkIzNysHC1ieH-2" value="&lt;div&gt;&lt;font style=&quot;font-size: 14px;&quot;&gt;GM, volunteer, paid attendee, &lt;br&gt;&lt;/font&gt;&lt;/div&gt;&lt;div&gt;&lt;font style=&quot;font-size: 14px;&quot;&gt;staff, editor, administrator, comp&lt;/font&gt;&lt;/div&gt;" style="strokeWidth=2;html=1;shape=mxgraph.flowchart.annotation_2;align=left;labelPosition=right;pointerEvents=1;" vertex="1" parent="WIyWlLk6GJQsqaUBKTNV-1">
          <mxGeometry x="350" y="190" width="50" height="90" as="geometry" />
        </mxCell>
        <mxCell id="UfIM0l1DkIzNysHC1ieH-6" value="&lt;font style=&quot;font-size: 14px;&quot;&gt;Is the event a volunteer shift?&lt;/font&gt;" style="rhombus;whiteSpace=wrap;html=1;" vertex="1" parent="WIyWlLk6GJQsqaUBKTNV-1">
          <mxGeometry x="125" y="480" width="170" height="190" as="geometry" />
        </mxCell>
        <mxCell id="UfIM0l1DkIzNysHC1ieH-7" value="&lt;font style=&quot;font-size: 16px;&quot;&gt;DENY&lt;/font&gt;" style="ellipse;whiteSpace=wrap;html=1;aspect=fixed;" vertex="1" parent="WIyWlLk6GJQsqaUBKTNV-1">
          <mxGeometry x="590" y="790" width="80" height="80" as="geometry" />
        </mxCell>
        <mxCell id="UfIM0l1DkIzNysHC1ieH-8" value="&lt;font style=&quot;font-size: 16px;&quot;&gt;CONTINUE&lt;/font&gt;" style="ellipse;whiteSpace=wrap;html=1;aspect=fixed;" vertex="1" parent="WIyWlLk6GJQsqaUBKTNV-1">
          <mxGeometry x="160" y="1030" width="100" height="100" as="geometry" />
        </mxCell>
        <mxCell id="UfIM0l1DkIzNysHC1ieH-9" value="&lt;font style=&quot;font-size: 14px;&quot;&gt;Does the user have the volunteer role?&lt;/font&gt;" style="rhombus;whiteSpace=wrap;html=1;" vertex="1" parent="WIyWlLk6GJQsqaUBKTNV-1">
          <mxGeometry x="295" y="730" width="180" height="200" as="geometry" />
        </mxCell>
        <mxCell id="UfIM0l1DkIzNysHC1ieH-10" value="" style="endArrow=classic;html=1;rounded=0;exitX=0.567;exitY=1;exitDx=0;exitDy=0;exitPerimeter=0;entryX=0.539;entryY=0.01;entryDx=0;entryDy=0;entryPerimeter=0;" edge="1" parent="WIyWlLk6GJQsqaUBKTNV-1" source="UfIM0l1DkIzNysHC1ieH-0" target="UfIM0l1DkIzNysHC1ieH-1">
          <mxGeometry width="50" height="50" relative="1" as="geometry">
            <mxPoint x="360" y="460" as="sourcePoint" />
            <mxPoint x="410" y="410" as="targetPoint" />
          </mxGeometry>
        </mxCell>
        <mxCell id="UfIM0l1DkIzNysHC1ieH-11" value="" style="endArrow=classic;html=1;rounded=0;exitX=0.5;exitY=1;exitDx=0;exitDy=0;" edge="1" parent="WIyWlLk6GJQsqaUBKTNV-1" source="UfIM0l1DkIzNysHC1ieH-1" target="UfIM0l1DkIzNysHC1ieH-6">
          <mxGeometry width="50" height="50" relative="1" as="geometry">
            <mxPoint x="360" y="460" as="sourcePoint" />
            <mxPoint x="410" y="410" as="targetPoint" />
          </mxGeometry>
        </mxCell>
        <mxCell id="UfIM0l1DkIzNysHC1ieH-16" value="&lt;font style=&quot;font-size: 16px;&quot;&gt;YES&lt;/font&gt;" style="edgeLabel;html=1;align=center;verticalAlign=middle;resizable=0;points=[];" vertex="1" connectable="0" parent="UfIM0l1DkIzNysHC1ieH-11">
          <mxGeometry x="-0.52" y="4" relative="1" as="geometry">
            <mxPoint as="offset" />
          </mxGeometry>
        </mxCell>
        <mxCell id="UfIM0l1DkIzNysHC1ieH-12" value="" style="endArrow=none;dashed=1;html=1;dashPattern=1 3;strokeWidth=2;rounded=0;exitX=1;exitY=0;exitDx=0;exitDy=0;" edge="1" parent="WIyWlLk6GJQsqaUBKTNV-1" source="UfIM0l1DkIzNysHC1ieH-1" target="UfIM0l1DkIzNysHC1ieH-2">
          <mxGeometry width="50" height="50" relative="1" as="geometry">
            <mxPoint x="360" y="460" as="sourcePoint" />
            <mxPoint x="410" y="410" as="targetPoint" />
          </mxGeometry>
        </mxCell>
        <mxCell id="UfIM0l1DkIzNysHC1ieH-13" value="" style="endArrow=classic;html=1;rounded=0;exitX=0.5;exitY=1;exitDx=0;exitDy=0;" edge="1" parent="WIyWlLk6GJQsqaUBKTNV-1" source="UfIM0l1DkIzNysHC1ieH-6" target="UfIM0l1DkIzNysHC1ieH-8">
          <mxGeometry width="50" height="50" relative="1" as="geometry">
            <mxPoint x="360" y="550" as="sourcePoint" />
            <mxPoint x="410" y="500" as="targetPoint" />
          </mxGeometry>
        </mxCell>
        <mxCell id="UfIM0l1DkIzNysHC1ieH-17" value="&lt;font style=&quot;font-size: 16px;&quot;&gt;NO&lt;/font&gt;" style="edgeLabel;html=1;align=center;verticalAlign=middle;resizable=0;points=[];" vertex="1" connectable="0" parent="UfIM0l1DkIzNysHC1ieH-13">
          <mxGeometry x="-0.4865" y="-1" relative="1" as="geometry">
            <mxPoint as="offset" />
          </mxGeometry>
        </mxCell>
        <mxCell id="UfIM0l1DkIzNysHC1ieH-14" value="" style="endArrow=classic;html=1;rounded=0;exitX=1;exitY=0.5;exitDx=0;exitDy=0;" edge="1" parent="WIyWlLk6GJQsqaUBKTNV-1" source="UfIM0l1DkIzNysHC1ieH-1" target="UfIM0l1DkIzNysHC1ieH-7">
          <mxGeometry width="50" height="50" relative="1" as="geometry">
            <mxPoint x="360" y="610" as="sourcePoint" />
            <mxPoint x="410" y="560" as="targetPoint" />
            <Array as="points">
              <mxPoint x="630" y="330" />
            </Array>
          </mxGeometry>
        </mxCell>
        <mxCell id="UfIM0l1DkIzNysHC1ieH-15" value="&lt;font style=&quot;font-size: 16px;&quot;&gt;NO&lt;/font&gt;" style="edgeLabel;html=1;align=center;verticalAlign=middle;resizable=0;points=[];" vertex="1" connectable="0" parent="UfIM0l1DkIzNysHC1ieH-14">
          <mxGeometry x="-0.7544" y="-1" relative="1" as="geometry">
            <mxPoint as="offset" />
          </mxGeometry>
        </mxCell>
        <mxCell id="UfIM0l1DkIzNysHC1ieH-18" value="" style="endArrow=classic;html=1;rounded=0;exitX=1;exitY=0.5;exitDx=0;exitDy=0;entryX=0.5;entryY=0;entryDx=0;entryDy=0;" edge="1" parent="WIyWlLk6GJQsqaUBKTNV-1" source="UfIM0l1DkIzNysHC1ieH-6" target="UfIM0l1DkIzNysHC1ieH-9">
          <mxGeometry width="50" height="50" relative="1" as="geometry">
            <mxPoint x="360" y="700" as="sourcePoint" />
            <mxPoint x="410" y="650" as="targetPoint" />
            <Array as="points">
              <mxPoint x="385" y="575" />
            </Array>
          </mxGeometry>
        </mxCell>
        <mxCell id="UfIM0l1DkIzNysHC1ieH-19" value="&lt;font style=&quot;font-size: 16px;&quot;&gt;YES&lt;/font&gt;" style="edgeLabel;html=1;align=center;verticalAlign=middle;resizable=0;points=[];" vertex="1" connectable="0" parent="UfIM0l1DkIzNysHC1ieH-18">
          <mxGeometry x="-0.4612" y="4" relative="1" as="geometry">
            <mxPoint as="offset" />
          </mxGeometry>
        </mxCell>
        <mxCell id="UfIM0l1DkIzNysHC1ieH-20" value="" style="endArrow=classic;html=1;rounded=0;entryX=0;entryY=0.5;entryDx=0;entryDy=0;" edge="1" parent="WIyWlLk6GJQsqaUBKTNV-1" target="UfIM0l1DkIzNysHC1ieH-7">
          <mxGeometry width="50" height="50" relative="1" as="geometry">
            <mxPoint x="475" y="830" as="sourcePoint" />
            <mxPoint x="525" y="780" as="targetPoint" />
          </mxGeometry>
        </mxCell>
        <mxCell id="UfIM0l1DkIzNysHC1ieH-21" value="&lt;font style=&quot;font-size: 16px;&quot;&gt;NO&lt;/font&gt;" style="edgeLabel;html=1;align=center;verticalAlign=middle;resizable=0;points=[];" vertex="1" connectable="0" parent="UfIM0l1DkIzNysHC1ieH-20">
          <mxGeometry x="-0.3739" y="1" relative="1" as="geometry">
            <mxPoint as="offset" />
          </mxGeometry>
        </mxCell>
        <mxCell id="UfIM0l1DkIzNysHC1ieH-23" value="" style="endArrow=classic;html=1;rounded=0;exitX=0.5;exitY=1;exitDx=0;exitDy=0;" edge="1" parent="WIyWlLk6GJQsqaUBKTNV-1" source="UfIM0l1DkIzNysHC1ieH-9" target="UfIM0l1DkIzNysHC1ieH-8">
          <mxGeometry width="50" height="50" relative="1" as="geometry">
            <mxPoint x="360" y="790" as="sourcePoint" />
            <mxPoint x="410" y="740" as="targetPoint" />
            <Array as="points">
              <mxPoint x="385" y="1080" />
            </Array>
          </mxGeometry>
        </mxCell>
        <mxCell id="UfIM0l1DkIzNysHC1ieH-24" value="&lt;font style=&quot;font-size: 16px;&quot;&gt;YES&lt;/font&gt;" style="edgeLabel;html=1;align=center;verticalAlign=middle;resizable=0;points=[];" vertex="1" connectable="0" parent="UfIM0l1DkIzNysHC1ieH-23">
          <mxGeometry x="-0.5423" y="-2" relative="1" as="geometry">
            <mxPoint as="offset" />
          </mxGeometry>
        </mxCell>
      </root>
    </mxGraphModel>
  </diagram>
</mxfile>
